<svg height="480pt" viewBox="-96 0 480 480" width="480pt" xmlns="http://www.w3.org/2000/svg"><path d="m288 144c0-79.527344-64.472656-144-144-144s-144 64.472656-144 144c-.0507812 31.054688 10.039062 61.277344 28.734375 86.070312l39.722656 105.929688h-20.457031c-4.417969 0-8 3.582031-8 8v104h16.800781c3.828125 18.613281 20.199219 31.976562 39.199219 32h96c19-.023438 35.371094-13.386719 39.199219-32h16.800781v-104c0-4.417969-3.582031-8-8-8h-20.457031l39.722656-105.929688c18.695313-24.792968 28.785156-55.015624 28.734375-86.070312zm-96 320h-96c-10.167969-.011719-19.230469-6.417969-22.632812-16h141.265624c-3.402343 9.582031-12.464843 15.988281-22.632812 16zm40-32h-176v-16h176zm0-80v48h-176v-16h80v-16h-80v-16zm-97.222656-16-20.554688-123.296875 26.800782 10.730469c1.914062.75 4.039062.75 5.953124 0l26.800782-10.730469-20.554688 123.296875zm109.910156-112.632812-42.230469 112.632812h-33.015625l22.445313-134.679688c.480469-2.851562-.617188-5.742187-2.871094-7.554687-2.25-1.816406-5.304687-2.273437-7.992187-1.199219l-37.023438 14.816406-37.023438-14.816406c-2.683593-1.074218-5.742187-.617187-7.992187 1.199219-2.253906 1.8125-3.351563 4.703125-2.871094 7.554687l22.445313 134.679688h-33.015625l-42.230469-112.632812c-.277344-.726563-.65625-1.410157-1.128906-2.03125-17.015625-22.1875-26.222656-49.375-26.183594-77.335938 0-70.691406 57.308594-128 128-128s128 57.308594 128 128c.039062 27.960938-9.167969 55.148438-26.183594 77.335938-.472656.621093-.851562 1.304687-1.128906 2.03125zm0 0"/><path d="m208 88h16v16h-16zm0 0"/><path d="m184 120h16v16h-16zm0 0"/></svg>